<mxfile host="app.diagrams.net" agent="Mozilla/5.0 (Windows NT 10.0; Win64; x64) AppleWebKit/537.36 (KHTML, like Gecko) Chrome/132.0.0.0 Safari/537.36" version="26.0.9">
  <diagram name="Improved Architecture" id="0">
    <mxGraphModel dx="2081" dy="2152" grid="1" gridSize="10" guides="1" tooltips="1" connect="1" arrows="1" fold="1" page="1" pageScale="1" pageWidth="827" pageHeight="1169" math="0" shadow="0">
      <root>
        <mxCell id="0" />
        <mxCell id="1" parent="0" />
        <mxCell id="monitoring" value="Local data&lt;br&gt;(for example .las)" style="rounded=1;whiteSpace=wrap;html=1;fillColor=#E1D5E7;" parent="1" vertex="1">
          <mxGeometry x="380" y="-100" width="120" height="60" as="geometry" />
        </mxCell>
        <mxCell id="p4fFlUHIU8x2tn-PPnBY-1" value="Data ingest&lt;div&gt;(Python)&lt;/div&gt;" style="rounded=1;whiteSpace=wrap;html=1;fillColor=#F5F5F5;" parent="1" vertex="1">
          <mxGeometry x="360" y="110" width="160" height="60" as="geometry" />
        </mxCell>
        <mxCell id="vZamyKKl-bPV80RO2PdQ-4" value="" style="endArrow=classic;html=1;rounded=0;entryX=0.5;entryY=0;entryDx=0;entryDy=0;exitX=0.5;exitY=1;exitDx=0;exitDy=0;" edge="1" parent="1" source="monitoring" target="vZamyKKl-bPV80RO2PdQ-24">
          <mxGeometry width="50" height="50" relative="1" as="geometry">
            <mxPoint x="410" y="70" as="sourcePoint" />
            <mxPoint x="460" y="20" as="targetPoint" />
          </mxGeometry>
        </mxCell>
        <mxCell id="vZamyKKl-bPV80RO2PdQ-12" value="Google VPC network" style="swimlane;whiteSpace=wrap;html=1;" vertex="1" parent="1">
          <mxGeometry x="235" y="270" width="410" height="250" as="geometry" />
        </mxCell>
        <mxCell id="main_db" value="Cassandra seed 1 &lt;br&gt;(eu-north)" style="shape=cylinder;whiteSpace=wrap;html=1;fillColor=#D5E8D4;" parent="vZamyKKl-bPV80RO2PdQ-12" vertex="1">
          <mxGeometry x="65" y="80" width="80" height="140" as="geometry" />
        </mxCell>
        <mxCell id="vZamyKKl-bPV80RO2PdQ-6" value="Virtual machine 1" style="swimlane;whiteSpace=wrap;html=1;" vertex="1" parent="vZamyKKl-bPV80RO2PdQ-12">
          <mxGeometry x="45" y="40" width="125" height="190" as="geometry" />
        </mxCell>
        <mxCell id="vZamyKKl-bPV80RO2PdQ-7" value="Virtual machine 2" style="swimlane;whiteSpace=wrap;html=1;" vertex="1" parent="vZamyKKl-bPV80RO2PdQ-12">
          <mxGeometry x="245" y="40" width="125" height="190" as="geometry" />
        </mxCell>
        <mxCell id="vZamyKKl-bPV80RO2PdQ-2" value="Cassandra seed 2&lt;br&gt;(eu-west)" style="shape=cylinder;whiteSpace=wrap;html=1;fillColor=#D5E8D4;" vertex="1" parent="vZamyKKl-bPV80RO2PdQ-7">
          <mxGeometry x="24" y="30" width="80" height="140" as="geometry" />
        </mxCell>
        <mxCell id="vZamyKKl-bPV80RO2PdQ-11" value="Replication" style="endArrow=classic;startArrow=classic;html=1;rounded=0;exitX=1;exitY=0.429;exitDx=0;exitDy=0;exitPerimeter=0;" edge="1" parent="vZamyKKl-bPV80RO2PdQ-12" source="main_db" target="vZamyKKl-bPV80RO2PdQ-2">
          <mxGeometry width="50" height="50" relative="1" as="geometry">
            <mxPoint x="185" y="140" as="sourcePoint" />
            <mxPoint x="235" y="90" as="targetPoint" />
          </mxGeometry>
        </mxCell>
        <mxCell id="vZamyKKl-bPV80RO2PdQ-13" value="Terraform" style="rounded=1;whiteSpace=wrap;html=1;fillColor=light-dark(#1ABE39,var(--ge-dark-color, #121212));" vertex="1" parent="1">
          <mxGeometry x="390" y="620" width="120" height="60" as="geometry" />
        </mxCell>
        <mxCell id="vZamyKKl-bPV80RO2PdQ-14" value="Creates" style="endArrow=classic;html=1;rounded=0;exitX=1;exitY=0.25;exitDx=0;exitDy=0;entryX=0.5;entryY=1;entryDx=0;entryDy=0;" edge="1" parent="1" source="vZamyKKl-bPV80RO2PdQ-13" target="vZamyKKl-bPV80RO2PdQ-7">
          <mxGeometry width="50" height="50" relative="1" as="geometry">
            <mxPoint x="150" y="370" as="sourcePoint" />
            <mxPoint x="240" y="320" as="targetPoint" />
          </mxGeometry>
        </mxCell>
        <mxCell id="vZamyKKl-bPV80RO2PdQ-15" value="Creates" style="endArrow=classic;html=1;rounded=0;exitX=0.568;exitY=-0.004;exitDx=0;exitDy=0;entryX=0.5;entryY=1;entryDx=0;entryDy=0;exitPerimeter=0;" edge="1" parent="1" source="vZamyKKl-bPV80RO2PdQ-13" target="vZamyKKl-bPV80RO2PdQ-12">
          <mxGeometry width="50" height="50" relative="1" as="geometry">
            <mxPoint x="490" y="625" as="sourcePoint" />
            <mxPoint x="550" y="520" as="targetPoint" />
          </mxGeometry>
        </mxCell>
        <mxCell id="vZamyKKl-bPV80RO2PdQ-16" value="Creates" style="endArrow=classic;html=1;rounded=0;exitX=0.185;exitY=0.016;exitDx=0;exitDy=0;exitPerimeter=0;" edge="1" parent="1" source="vZamyKKl-bPV80RO2PdQ-13">
          <mxGeometry width="50" height="50" relative="1" as="geometry">
            <mxPoint x="438" y="610" as="sourcePoint" />
            <mxPoint x="360" y="500" as="targetPoint" />
          </mxGeometry>
        </mxCell>
        <mxCell id="vZamyKKl-bPV80RO2PdQ-17" value="YAML +&amp;nbsp;&lt;div&gt;Powershell script&lt;/div&gt;" style="rounded=1;whiteSpace=wrap;html=1;fillColor=light-dark(#00CCCC,var(--ge-dark-color, #121212));" vertex="1" parent="1">
          <mxGeometry x="50" y="440" width="120" height="60" as="geometry" />
        </mxCell>
        <mxCell id="vZamyKKl-bPV80RO2PdQ-22" value="Configures" style="endArrow=none;dashed=1;html=1;dashPattern=1 3;strokeWidth=2;rounded=0;exitX=1;exitY=0.25;exitDx=0;exitDy=0;entryX=0;entryY=0.7;entryDx=0;entryDy=0;" edge="1" parent="1" source="vZamyKKl-bPV80RO2PdQ-17" target="main_db">
          <mxGeometry width="50" height="50" relative="1" as="geometry">
            <mxPoint x="670" y="280" as="sourcePoint" />
            <mxPoint x="720" y="230" as="targetPoint" />
          </mxGeometry>
        </mxCell>
        <mxCell id="vZamyKKl-bPV80RO2PdQ-23" value="Configures" style="endArrow=none;dashed=1;html=1;dashPattern=1 3;strokeWidth=2;rounded=0;exitX=1;exitY=0.5;exitDx=0;exitDy=0;entryX=0;entryY=0.877;entryDx=0;entryDy=0;entryPerimeter=0;" edge="1" parent="1" source="vZamyKKl-bPV80RO2PdQ-17" target="vZamyKKl-bPV80RO2PdQ-2">
          <mxGeometry width="50" height="50" relative="1" as="geometry">
            <mxPoint x="180" y="465" as="sourcePoint" />
            <mxPoint x="310" y="458" as="targetPoint" />
          </mxGeometry>
        </mxCell>
        <mxCell id="vZamyKKl-bPV80RO2PdQ-24" value="Local machine" style="rounded=1;whiteSpace=wrap;html=1;" vertex="1" parent="1">
          <mxGeometry x="380" width="120" height="60" as="geometry" />
        </mxCell>
        <mxCell id="vZamyKKl-bPV80RO2PdQ-25" value="Third action" style="endArrow=classic;html=1;rounded=0;entryX=0.5;entryY=0;entryDx=0;entryDy=0;exitX=0.5;exitY=1;exitDx=0;exitDy=0;" edge="1" parent="1" source="vZamyKKl-bPV80RO2PdQ-24" target="p4fFlUHIU8x2tn-PPnBY-1">
          <mxGeometry width="50" height="50" relative="1" as="geometry">
            <mxPoint x="290" y="130" as="sourcePoint" />
            <mxPoint x="340" y="80" as="targetPoint" />
          </mxGeometry>
        </mxCell>
        <mxCell id="vZamyKKl-bPV80RO2PdQ-26" value="Second action" style="endArrow=classic;html=1;rounded=0;exitX=0;exitY=0.5;exitDx=0;exitDy=0;entryX=0.5;entryY=0;entryDx=0;entryDy=0;" edge="1" parent="1" source="vZamyKKl-bPV80RO2PdQ-24" target="vZamyKKl-bPV80RO2PdQ-17">
          <mxGeometry width="50" height="50" relative="1" as="geometry">
            <mxPoint x="270" y="40" as="sourcePoint" />
            <mxPoint x="110" y="40" as="targetPoint" />
            <Array as="points">
              <mxPoint x="110" y="30" />
            </Array>
          </mxGeometry>
        </mxCell>
        <mxCell id="vZamyKKl-bPV80RO2PdQ-27" value="First action" style="endArrow=classic;html=1;rounded=0;exitX=1;exitY=0.5;exitDx=0;exitDy=0;entryX=1;entryY=0.5;entryDx=0;entryDy=0;" edge="1" parent="1" source="vZamyKKl-bPV80RO2PdQ-24" target="vZamyKKl-bPV80RO2PdQ-13">
          <mxGeometry width="50" height="50" relative="1" as="geometry">
            <mxPoint x="600" y="100" as="sourcePoint" />
            <mxPoint x="650" y="50" as="targetPoint" />
            <Array as="points">
              <mxPoint x="710" y="30" />
              <mxPoint x="710" y="650" />
            </Array>
          </mxGeometry>
        </mxCell>
        <mxCell id="vZamyKKl-bPV80RO2PdQ-28" value="" style="endArrow=classic;html=1;rounded=0;exitX=0.5;exitY=1;exitDx=0;exitDy=0;" edge="1" parent="1" source="p4fFlUHIU8x2tn-PPnBY-1">
          <mxGeometry width="50" height="50" relative="1" as="geometry">
            <mxPoint x="300" y="260" as="sourcePoint" />
            <mxPoint x="340" y="310" as="targetPoint" />
            <Array as="points">
              <mxPoint x="340" y="230" />
            </Array>
          </mxGeometry>
        </mxCell>
        <mxCell id="vZamyKKl-bPV80RO2PdQ-29" value="" style="endArrow=classic;html=1;rounded=0;exitX=0.5;exitY=1;exitDx=0;exitDy=0;" edge="1" parent="1" source="p4fFlUHIU8x2tn-PPnBY-1">
          <mxGeometry width="50" height="50" relative="1" as="geometry">
            <mxPoint x="540" y="240" as="sourcePoint" />
            <mxPoint x="540" y="310" as="targetPoint" />
            <Array as="points">
              <mxPoint x="540" y="230" />
            </Array>
          </mxGeometry>
        </mxCell>
      </root>
    </mxGraphModel>
  </diagram>
</mxfile>
